<?xml version="1.0" standalone="no"?><!DOCTYPE svg PUBLIC "-//W3C//DTD SVG 1.1//EN" "http://www.w3.org/Graphics/SVG/1.1/DTD/svg11.dtd"><svg t="1640767398919" class="icon" viewBox="0 0 1024 1024" version="1.1" xmlns="http://www.w3.org/2000/svg" p-id="867" xmlns:xlink="http://www.w3.org/1999/xlink" width="200" height="200"><defs><style type="text/css"></style></defs><path d="M512 921.6a409.6 409.6 0 1 1 409.6-409.6 409.6 409.6 0 0 1-409.6 409.6z m0-716.8a307.2 307.2 0 1 0 307.2 307.2 307.2 307.2 0 0 0-307.2-307.2z" p-id="868" fill="#ffffff"></path><path d="M665.6 460.8h-102.4V358.4a51.2 51.2 0 0 0-102.4 0v102.4H358.4a51.2 51.2 0 0 0 0 102.4h102.4v102.4a51.2 51.2 0 0 0 102.4 0v-102.4h102.4a51.2 51.2 0 0 0 0-102.4z" p-id="869" fill="#ffffff"></path></svg>